<svg id="Layer_1" data-name="Layer 1" xmlns="http://www.w3.org/2000/svg" viewBox="0 0 511.58 270.93"><defs><style>.cls-1{fill:#d1c392;}.cls-1,.cls-2{fill-rule:evenodd;}.cls-2,.cls-4{fill:#b5a268;}.cls-3{fill:#c6ad70;}</style></defs><path class="cls-1" d="M219.93,41.27c19.64,3.85,43.84,3.66,88.91-9.5-10.72-4.18-20.54-7.13-35.18-.33C261.85,37,226.16,42,201.31,34.65c-18-6.42-22.21-7.38-48.79-3.53L41.85,53.85c61.5,2,126.92,15.66,183.22,27.6,66.25-11.74,23.56-29.85-5.14-40.18" transform="translate(-41.85 -26.54)"/><path class="cls-1" d="M365.72,27.79l-1-.2c-6.49-1.47-13-1.47-22.86.45L243,47.94c20.41,4,59.51,19.26,10.91,36,10.59,3.21,35.88,9.18,53.86,13,37.56-14.19,75.11-20.68,123.32-28.19,13.74-1.34,19-.77,12.84-6.29-4.24-3.85-18.61-11.3-34.15-18.1,36,3.46,61.75,9.31,57,18.75,47.45-8.48,61.57-11.05,86.61-14.71-32.23-7.31-60.6-12.83-83.14-17.2-14.76-2.83-22.85-2.31-32.48,0-11,2.63-27.47,9.76-58.16,1.22a118.54,118.54,0,0,0-13.87-4.62" transform="translate(-41.85 -26.54)"/><path class="cls-2" d="M131.21,63.22c32.55,5.27,64.52,12,94,18.23,74-13.09,12-34.15-14.44-43.45-8.35-3-14.18-5.14-19.19-6.62C203.24,54.43,142.7,63,131.21,63.22" transform="translate(-41.85 -26.54)"/><path class="cls-2" d="M281.62,38.7q12.22-2.6,27.22-6.93c-5.65-2.25-11-4.11-17-4.37,1.54,5.46-1.86,7.51-10.21,11.3" transform="translate(-41.85 -26.54)"/><path class="cls-2" d="M307.75,96.93c37.56-14.19,75.18-20.68,123.32-28.19,13.74-1.34,19-.7,12.9-6.29S410.66,43.9,389.22,36c-10.47-3.78-17.21-6.74-23.69-8.28,12.19,35.76-36.08,55.08-57.78,69.21" transform="translate(-41.85 -26.54)"/><path class="cls-2" d="M490.07,58.92c29.78-5.26,42.95-7.51,63.36-10.53-32.29-7.32-60.66-12.83-83.2-17.14-2.82-.58-5.45-1-7.83-1.28,30.11,9,37.17,13,27.67,29" transform="translate(-41.85 -26.54)"/><path class="cls-3" d="M93.28,243.45a12.14,12.14,0,0,1-3.88,9.21A13.2,13.2,0,0,1,80,256.34H56.06a13.21,13.21,0,0,1-9.42-3.68,12.18,12.18,0,0,1-3.88-9.21V228.52a12.18,12.18,0,0,1,3.88-9.21,13.21,13.21,0,0,1,9.42-3.68H80a13.2,13.2,0,0,1,9.42,3.68,12.14,12.14,0,0,1,3.88,9.21Zm-9.5,0V228.53q0-3.41-3.8-3.4H56.06q-3.8,0-3.8,3.4v14.91q0,3.39,3.8,3.39H80q3.8,0,3.8-3.39" transform="translate(-41.85 -26.54)"/><polygon class="cls-3" points="98.87 198.6 64.89 198.6 64.89 204.69 96.73 204.69 96.73 214.2 64.89 214.2 64.89 229.8 55.39 229.8 55.39 189.09 98.87 189.09 98.87 198.6"/><polygon class="cls-3" points="145.03 198.6 111.06 198.6 111.06 204.69 142.9 204.69 142.9 214.2 111.06 214.2 111.06 229.8 101.56 229.8 101.56 189.09 145.03 189.09 145.03 198.6"/><path class="cls-3" d="M237.41,256.34h-13l-20.35-22.81h24.47q2.61,0,2.61-4.2t-2.61-4.2H199.08v31.21h-9.5V215.63h39.51a10.19,10.19,0,0,1,8.64,4.28,16.62,16.62,0,0,1,0,18.85,10.21,10.21,0,0,1-8.64,4.27h-3.64Z" transform="translate(-41.85 -26.54)"/><path class="cls-3" d="M295.13,243.45a12.17,12.17,0,0,1-3.87,9.21,13.24,13.24,0,0,1-9.43,3.68H257.92a13.22,13.22,0,0,1-9.43-3.68,12.14,12.14,0,0,1-3.88-9.21V228.52a12.14,12.14,0,0,1,3.88-9.21,13.22,13.22,0,0,1,9.43-3.68h23.91a13.24,13.24,0,0,1,9.43,3.68,12.17,12.17,0,0,1,3.87,9.21Zm-9.5,0V228.53c0-2.27-1.26-3.4-3.8-3.4H257.92q-3.81,0-3.81,3.4v14.91q0,3.39,3.81,3.39h23.91c2.54,0,3.8-1.13,3.8-3.39" transform="translate(-41.85 -26.54)"/><path class="cls-3" d="M349.06,256.34h-9.5V243.43h-25v-9.51h25v-5.7c0-2.06-.69-3.09-2.06-3.09H310.58q-2,0-2,3.09v28.12h-9.51V228.2a13.07,13.07,0,0,1,3.21-8.85,10.43,10.43,0,0,1,8.28-3.72H337.5a10.49,10.49,0,0,1,8.35,3.72,13.07,13.07,0,0,1,3.21,8.85Z" transform="translate(-41.85 -26.54)"/><path class="cls-3" d="M397.69,243.45a12.23,12.23,0,0,1-3.85,9.21,13.05,13.05,0,0,1-9.38,3.68H353V230.68h9.5v16.15h22q3.64,0,3.65-3.39V228.53c0-2.27-1.21-3.4-3.65-3.4H353v-9.5h31.44a13.08,13.08,0,0,1,9.38,3.67,12.26,12.26,0,0,1,3.85,9.22Z" transform="translate(-41.85 -26.54)"/><polygon class="cls-3" points="403.27 198.6 369.3 198.6 369.3 204.69 401.05 204.69 401.05 214.2 369.3 214.2 369.3 220.3 403.19 220.3 403.19 229.8 359.79 229.8 359.79 189.09 403.27 189.09 403.27 198.6"/><path class="cls-3" d="M496.91,256.34h-13l-20.35-22.81H488q2.61,0,2.61-4.2t-2.61-4.2H458.58v31.21h-9.5V215.63H488.6a10.19,10.19,0,0,1,8.63,4.28,16.62,16.62,0,0,1,0,18.85A10.2,10.2,0,0,1,488.6,243H485Z" transform="translate(-41.85 -26.54)"/><path class="cls-3" d="M552.74,243.78a13.09,13.09,0,0,1-3.09,8.77,10.72,10.72,0,0,1-8.4,3.79H506.09v-9.51h35.16c1.32,0,2-1,2-3.05s-.66-3.05-2-3.05H515.68a10.67,10.67,0,0,1-8.4-3.8,12.64,12.64,0,0,1-3.17-8.71,13.09,13.09,0,0,1,3.25-8.87,10.56,10.56,0,0,1,8.32-3.72h35.16v9.5H515.6q-2,0-2,3.09c0,2,.66,3,2,3h25.63a10.73,10.73,0,0,1,8.41,3.79,13.07,13.07,0,0,1,3.1,8.76" transform="translate(-41.85 -26.54)"/><polygon class="cls-3" points="60.2 124.58 13.7 124.58 13.7 132.93 57.17 132.93 57.17 145.93 13.7 145.93 13.7 154.28 60.1 154.28 60.1 167.28 0.69 167.28 0.69 111.57 60.2 111.57 60.2 124.58"/><polygon class="cls-3" points="138.03 167.28 125.02 167.28 125.02 133.36 101.83 166.41 78.63 133.36 78.63 167.28 65.62 167.28 65.62 111.57 79.28 111.57 101.83 143.76 124.48 111.57 138.03 111.57 138.03 167.28"/><rect class="cls-3" x="143.45" y="111.57" width="13.01" height="55.71"/><path class="cls-3" d="M269.2,193.82H251.42L223.56,162.6h33.5q3.57,0,3.57-5.74t-3.57-5.75H216.73v42.71h-13V138.11h54.08A13.93,13.93,0,0,1,269.63,144a22.75,22.75,0,0,1,0,25.8,13.93,13.93,0,0,1-11.82,5.85h-5Z" transform="translate(-41.85 -26.54)"/><path class="cls-3" d="M347.46,193.82h-13V176.15H300.19v-13h34.26v-7.81q0-4.23-2.82-4.23H294.78q-2.71,0-2.72,4.22v38.49h-13V155.31a17.92,17.92,0,0,1,4.39-12.12,14.26,14.26,0,0,1,11.33-5.08h36.85a14.38,14.38,0,0,1,11.43,5.08,17.93,17.93,0,0,1,4.4,12.12Z" transform="translate(-41.85 -26.54)"/><polygon class="cls-3" points="372.81 124.58 347.66 124.58 347.66 167.28 334.65 167.28 334.65 124.58 309.51 124.58 309.51 111.57 372.81 111.57 372.81 124.58"/><polygon class="cls-3" points="437.74 124.58 391.24 124.58 391.24 132.93 434.7 132.93 434.7 145.93 391.24 145.93 391.24 154.28 437.63 154.28 437.63 167.28 378.23 167.28 378.23 111.57 437.74 111.57 437.74 124.58"/><path class="cls-3" d="M551.56,176.64a17.92,17.92,0,0,1-4.23,12,14.64,14.64,0,0,1-11.49,5.18H487.72v-13h48.12q2.71,0,2.71-4.17t-2.71-4.17h-35a14.65,14.65,0,0,1-11.49-5.2A17.33,17.33,0,0,1,485,155.34a17.87,17.87,0,0,1,4.44-12.14,14.44,14.44,0,0,1,11.38-5.09H549v13H500.73q-2.72,0-2.72,4.23t2.72,4.12h35.08a14.7,14.7,0,0,1,11.52,5.19,17.87,17.87,0,0,1,4.23,12" transform="translate(-41.85 -26.54)"/><polygon class="cls-4" points="6.62 270.93 1.33 257.93 4.65 257.93 8.06 267 11.72 257.93 13.89 257.93 17.52 267 20.87 257.93 23.73 257.93 18.51 270.93 16.35 270.93 12.6 261.75 8.79 270.93 6.62 270.93"/><polygon class="cls-4" points="30.86 270.93 25.57 257.93 28.89 257.93 32.3 267 35.96 257.93 38.13 257.93 41.76 267 45.11 257.93 47.97 257.93 42.75 270.93 40.59 270.93 36.84 261.75 33.03 270.93 30.86 270.93"/><polygon class="cls-4" points="55.1 270.93 49.82 257.93 53.13 257.93 56.54 267 60.2 257.93 62.37 257.93 66 267 69.35 257.93 72.22 257.93 67 270.93 64.83 270.93 61.08 261.75 57.27 270.93 55.1 270.93"/><path class="cls-4" d="M121,292.71h.55a.67.67,0,0,1,.58.23,1.79,1.79,0,0,1,.16.89v2.49a1.58,1.58,0,0,1-.18.93q-.18.21-1.11.21h-2.75a.64.64,0,0,1-.57-.24,1.72,1.72,0,0,1-.16-.9v-2.49a1.52,1.52,0,0,1,.18-.91q.18-.21,1.11-.21Z" transform="translate(-41.85 -26.54)"/><polygon class="cls-4" points="87.17 270.93 87.17 255.07 103.4 255.07 103.4 257.77 90.86 257.77 90.86 261.31 98.18 261.31 98.18 264.01 90.86 264.01 90.86 267.94 103.55 267.94 103.55 270.93 87.17 270.93"/><polygon class="cls-4" points="109.2 270.93 109.2 257.93 111.74 257.93 118.1 265.64 124.43 257.93 126.98 257.93 126.98 270.93 124.04 270.93 124.04 261.99 118.24 269.37 117.62 269.37 111.74 262.19 111.74 270.93 109.2 270.93"/><rect class="cls-4" x="132.77" y="257.93" width="3.15" height="12.99"/><path class="cls-4" d="M183.56,297.46v-13h11.7a3.64,3.64,0,0,1,2.33.6,2.34,2.34,0,0,1,.72,1.92v3.06a2.33,2.33,0,0,1-.72,1.91,3.7,3.7,0,0,1-2.33.59h-1.78l6.18,4.91h-4.55l-5.44-4.91h-3v4.91Zm10.35-10.75h-7.23v3.6h7.23a1.91,1.91,0,0,0,1.13-.24,1,1,0,0,0,.31-.81v-1.5A1,1,0,0,0,195,287a1.91,1.91,0,0,0-1.13-.24" transform="translate(-41.85 -26.54)"/><path class="cls-4" d="M200.45,297.46l7.71-13h3.05l7.83,13h-3.56l-1.63-2.85h-8.6l-1.63,2.85Zm6.15-5.22h6l-3-5.41Z" transform="translate(-41.85 -26.54)"/><polygon class="cls-4" points="186.49 260.26 186.49 270.93 183.32 270.93 183.32 260.26 177.05 260.26 177.05 257.93 192.77 257.93 192.77 260.26 186.49 260.26"/><polygon class="cls-4" points="196.87 270.93 196.87 257.93 210.8 257.93 210.8 260.23 200.06 260.23 200.06 263.07 206.32 263.07 206.32 265.3 200.06 265.3 200.06 268.5 210.97 268.5 210.97 270.93 196.87 270.93"/><path class="cls-4" d="M269.4,286.8h-8.95v2.74h8.47a4.1,4.1,0,0,1,2.68.64,3.27,3.27,0,0,1,.69,2.42v1.79a3.25,3.25,0,0,1-.7,2.43,4.08,4.08,0,0,1-2.67.64h-8.44a4.21,4.21,0,0,1-2.72-.64,3.25,3.25,0,0,1-.71-2.43V294l2.82-.53V295h9.56v-3H261a4.11,4.11,0,0,1-2.7-.65,3.24,3.24,0,0,1-.71-2.42v-1.46a3.2,3.2,0,0,1,.71-2.4,4,4,0,0,1,2.7-.66h7.71a4.21,4.21,0,0,1,2.69.63,2.74,2.74,0,0,1,.73,2.19v.32l-2.74.58Z" transform="translate(-41.85 -26.54)"/><path class="cls-4" d="M278.59,285.36a4.14,4.14,0,0,1,.81-3,4.53,4.53,0,0,1,3.12-.79h11.67a4.53,4.53,0,0,1,3.12.79,4.14,4.14,0,0,1,.81,3v8.35a4.14,4.14,0,0,1-.81,3,4.59,4.59,0,0,1-3.12.78H282.52a4.59,4.59,0,0,1-3.12-.78,4.14,4.14,0,0,1-.81-3Zm3.69,9.12h12.17v-10H282.28Z" transform="translate(-41.85 -26.54)"/><polygon class="cls-4" points="262.89 270.93 262.89 257.93 276.67 257.93 276.67 260.26 266.08 260.26 266.08 263.65 271.78 263.65 271.78 266.07 266.08 266.07 266.08 270.93 262.89 270.93"/><polygon class="cls-4" points="279.78 270.93 279.78 257.93 293.56 257.93 293.56 260.26 282.97 260.26 282.97 263.65 288.67 263.65 288.67 266.07 282.97 266.07 282.97 270.93 279.78 270.93"/><path class="cls-4" d="M338.52,297.46v-13h11.7a3.6,3.6,0,0,1,2.32.6,2.34,2.34,0,0,1,.72,1.92v3.06a2.33,2.33,0,0,1-.72,1.91,3.67,3.67,0,0,1-2.32.59h-1.78l6.18,4.91h-4.55l-5.44-4.91h-3v4.91Zm10.35-10.75h-7.23v3.6h7.23a1.91,1.91,0,0,0,1.13-.24,1,1,0,0,0,.31-.81v-1.5A1,1,0,0,0,350,287a1.91,1.91,0,0,0-1.13-.24" transform="translate(-41.85 -26.54)"/><path class="cls-4" d="M358.17,287.53a3.26,3.26,0,0,1,.69-2.41,4,4,0,0,1,2.68-.65h10a4.06,4.06,0,0,1,2.7.65,3.3,3.3,0,0,1,.68,2.41v6.86a3.25,3.25,0,0,1-.7,2.43,4,4,0,0,1-2.68.64h-10a4,4,0,0,1-2.68-.64,3.3,3.3,0,0,1-.69-2.43Zm3.16,7.44h10.48v-8.11H361.33Z" transform="translate(-41.85 -26.54)"/><path class="cls-4" d="M378.46,297.46l7.72-13h3l7.83,13h-3.56l-1.63-2.85h-8.6l-1.63,2.85Zm6.15-5.22h6l-3-5.41Z" transform="translate(-41.85 -26.54)"/><path class="cls-4" d="M400.29,297.46v-13H409a8.83,8.83,0,0,1,5.78,1.68,6.67,6.67,0,0,1-.12,9.68q-2.15,1.64-6.46,1.63Zm3.19-2.43h4.09c2.23,0,3.79-.32,4.67-1a4.65,4.65,0,0,0,.23-6.28,5,5,0,0,0-3.4-1h-5.59Z" transform="translate(-41.85 -26.54)"/><polygon class="cls-4" points="379.76 270.93 379.76 257.93 393.69 257.93 393.69 260.23 382.95 260.23 382.95 263.07 389.21 263.07 389.21 265.3 382.95 265.3 382.95 268.5 393.86 268.5 393.86 270.93 379.76 270.93"/><path class="cls-4" d="M440.28,297.46v-13H452a3.64,3.64,0,0,1,2.33.6A2.34,2.34,0,0,1,455,287v3.06a2.33,2.33,0,0,1-.72,1.91,3.7,3.7,0,0,1-2.33.59H450.2l6.18,4.91h-4.55l-5.44-4.91h-3v4.91Zm10.35-10.75H443.4v3.6h7.23a1.91,1.91,0,0,0,1.13-.24,1,1,0,0,0,.31-.81v-1.5a1,1,0,0,0-.31-.81,1.91,1.91,0,0,0-1.13-.24" transform="translate(-41.85 -26.54)"/><path class="cls-4" d="M472.25,286.8h-8.94v2.74h8.46a4.1,4.1,0,0,1,2.68.64,3.27,3.27,0,0,1,.69,2.42v1.79a3.25,3.25,0,0,1-.7,2.43,4.06,4.06,0,0,1-2.67.64h-8.43a4.17,4.17,0,0,1-2.72-.64,3.2,3.2,0,0,1-.72-2.43V294l2.82-.53V295h9.56v-3h-8.42a4.11,4.11,0,0,1-2.7-.65,3.24,3.24,0,0,1-.7-2.42v-1.46a3.2,3.2,0,0,1,.7-2.4,4,4,0,0,1,2.7-.66h7.71a4.25,4.25,0,0,1,2.7.63,2.77,2.77,0,0,1,.73,2.19v.32l-2.75.58Z" transform="translate(-41.85 -26.54)"/><path class="cls-4" d="M483.9,292.71h.56a.64.64,0,0,1,.57.23,1.68,1.68,0,0,1,.16.89v2.49a1.58,1.58,0,0,1-.18.93q-.18.21-1.11.21h-2.74a.64.64,0,0,1-.57-.24,1.7,1.7,0,0,1-.17-.9v-2.49a1.52,1.52,0,0,1,.18-.91q.18-.21,1.11-.21Z" transform="translate(-41.85 -26.54)"/><path class="cls-4" d="M502.17,286.86h-8.53V295h8.53v-2.76l3.2.65v1.53a3.25,3.25,0,0,1-.71,2.42,4,4,0,0,1-2.7.65h-8.11a4.06,4.06,0,0,1-2.67-.64,3.25,3.25,0,0,1-.7-2.43v-6.86a3.26,3.26,0,0,1,.69-2.41,4.07,4.07,0,0,1,2.68-.65H502a4.09,4.09,0,0,1,2.71.65,3.21,3.21,0,0,1,.7,2.41v1.26l-3.2.47Z" transform="translate(-41.85 -26.54)"/><path class="cls-4" d="M510.26,287.53a3.26,3.26,0,0,1,.69-2.41,4,4,0,0,1,2.68-.65h10.06a4.06,4.06,0,0,1,2.69.65,3.3,3.3,0,0,1,.68,2.41v6.86a3.25,3.25,0,0,1-.7,2.43,4,4,0,0,1-2.67.64H513.63a4.06,4.06,0,0,1-2.68-.64,3.3,3.3,0,0,1-.69-2.43Zm3.16,7.44H523.9v-8.11H513.42Z" transform="translate(-41.85 -26.54)"/><polygon class="cls-4" points="490.69 270.93 490.69 257.93 493.22 257.93 499.58 265.64 505.91 257.93 508.46 257.93 508.46 270.93 505.52 270.93 505.52 261.99 499.72 269.37 499.1 269.37 493.22 262.19 493.22 270.93 490.69 270.93"/></svg>
